<svg width="122" height="24" viewBox="0 0 122 24" fill="none" xmlns="http://www.w3.org/2000/svg">
<g clip-path="url(#clip0_29_132)">
<path fill-rule="evenodd" clip-rule="evenodd" d="M4.9148 7.69468C4.79567 7.75428 4.74741 7.89917 4.80701 8.01829C4.86661 8.13742 5.0115 8.18568 5.13062 8.12608L5.6991 7.84167L7.91675 12.2732C6.37688 13.8352 5.70948 16.001 6.45035 18.1211C6.53031 18.3499 6.62567 18.576 6.73683 18.7981C8.17984 21.6817 11.737 22.8138 14.6767 21.3427C17.6163 19.8716 18.8425 16.3458 17.3995 13.4622C17.2644 13.1923 17.1107 12.9376 16.9405 12.6988C15.7037 10.9631 13.6958 10.249 11.6258 10.4767L9.38428 5.99754L9.82933 5.77483C9.94845 5.71521 9.99669 5.57032 9.93708 5.4512C9.87747 5.33208 9.73258 5.28384 9.61346 5.34345L8.95272 5.6741L5.69895 7.30237L5.69893 7.30238L4.9148 7.69468ZM8.38077 12.1226L6.13049 7.62582L8.95291 6.21341L11.2262 10.756C11.2993 10.9022 11.4558 10.9826 11.6134 10.9637C13.5175 10.7349 15.3279 11.3601 16.4655 12.8667L16.2621 13.3074C16.2301 13.357 16.1942 13.4197 16.1582 13.4824L16.1361 13.5209C16.086 13.6079 16.031 13.7016 15.9694 13.7936C15.8415 13.985 15.7065 14.1362 15.5692 14.2049C15.4214 14.2789 15.2011 14.3042 14.915 14.3326L14.8898 14.3351C14.6382 14.3599 14.3292 14.3905 14.0925 14.5089C13.9461 14.5822 13.8367 14.6994 13.7518 14.8142C13.6687 14.9268 13.5962 15.0554 13.5323 15.1686L13.5287 15.175C13.4607 15.2956 13.4017 15.3996 13.3379 15.486C13.2741 15.5723 13.219 15.6218 13.1693 15.6467C13.1097 15.6765 13.0123 15.7006 12.8714 15.717C12.7339 15.733 12.5784 15.7394 12.4112 15.7461L12.406 15.7463L12.406 15.7463C12.2447 15.7528 12.0721 15.7598 11.9147 15.7781C11.759 15.7962 11.5934 15.8278 11.4567 15.8962C11.2285 16.0103 11.0464 16.182 10.893 16.3265L10.8828 16.3361C10.7181 16.4913 10.5831 16.6162 10.4239 16.6958C10.2705 16.7726 10.0274 16.8258 9.76336 16.819C9.50019 16.8123 9.2459 16.7469 9.05902 16.6177C8.32196 16.1085 7.74746 16.0567 7.28684 16.2026C7.06617 16.2725 6.8869 16.3832 6.74508 16.4813C6.70858 16.5065 6.66995 16.5342 6.63454 16.5598C6.57222 15.0907 7.19398 13.6706 8.3077 12.5642C8.42287 12.4498 8.45563 12.2721 8.38077 12.1226ZM8.75098 16.9915C8.12663 16.5701 7.71532 16.5729 7.43246 16.6625C7.27886 16.7111 7.14561 16.7908 7.01942 16.878C6.97958 16.9056 6.94596 16.9299 6.91175 16.9546L6.91166 16.9547L6.91164 16.9547C6.88754 16.9721 6.86314 16.9897 6.83606 17.0089C6.81379 17.0246 6.79053 17.0408 6.76658 17.0565L7.49181 16.9115L8.75098 16.9915Z" fill="url(#paint0_linear_29_132)"/>
<path d="M4.80701 8.01829L4.95081 7.94635L4.95081 7.94635L4.80701 8.01829ZM4.9148 7.69468L4.98674 7.83848L4.9148 7.69468ZM5.13062 8.12608L5.05868 7.98228L5.13062 8.12608ZM5.6991 7.84167L5.84289 7.76971L5.77094 7.62594L5.62716 7.69787L5.6991 7.84167ZM7.91675 12.2732L8.03126 12.3861L8.11204 12.3041L8.06055 12.2012L7.91675 12.2732ZM6.45035 18.1211L6.60214 18.068L6.60214 18.068L6.45035 18.1211ZM16.9405 12.6988L17.0715 12.6054L16.9405 12.6988ZM11.6258 10.4767L11.482 10.5486L11.5321 10.6487L11.6433 10.6365L11.6258 10.4767ZM9.38428 5.99754L9.31233 5.85374L9.16854 5.9257L9.24049 6.06949L9.38428 5.99754ZM9.82933 5.77483L9.75737 5.63103L9.82933 5.77483ZM9.61346 5.34345L9.68541 5.48724L9.61346 5.34345ZM8.95272 5.6741L9.02468 5.81789L8.95272 5.6741ZM5.69895 7.30237L5.62699 7.15858L5.69895 7.30237ZM5.69893 7.30238L5.77087 7.44618L5.77089 7.44617L5.69893 7.30238ZM6.13049 7.62582L6.05853 7.48203L5.91474 7.55399L5.9867 7.69778L6.13049 7.62582ZM8.38077 12.1226L8.52457 12.0506L8.38077 12.1226ZM8.95291 6.21341L9.0967 6.14145L9.02474 5.99766L8.88095 6.06962L8.95291 6.21341ZM11.2262 10.756L11.0824 10.828L11.2262 10.756ZM11.6134 10.9637L11.6326 11.1233L11.6134 10.9637ZM16.4655 12.8667L16.6115 12.9341L16.6519 12.8467L16.5938 12.7698L16.4655 12.8667ZM16.2621 13.3074L16.3972 13.3945L16.4033 13.385L16.4081 13.3748L16.2621 13.3074ZM16.1582 13.4824L16.2976 13.5625L16.2977 13.5624L16.1582 13.4824ZM16.1361 13.5209L16.2755 13.6011L16.2756 13.6009L16.1361 13.5209ZM15.9694 13.7936L15.8358 13.7043L15.8358 13.7043L15.9694 13.7936ZM14.915 14.3326L14.9308 14.4926L14.9309 14.4926L14.915 14.3326ZM14.8898 14.3351L14.9057 14.4951L14.9057 14.4951L14.8898 14.3351ZM13.7518 14.8142L13.6225 14.7187L13.6225 14.7187L13.7518 14.8142ZM13.5323 15.1686L13.6724 15.2476L13.6724 15.2476L13.5323 15.1686ZM13.5287 15.175L13.6688 15.254L13.6688 15.254L13.5287 15.175ZM13.3379 15.486L13.2085 15.3905L13.2085 15.3905L13.3379 15.486ZM12.8714 15.717L12.8528 15.5573L12.8528 15.5573L12.8714 15.717ZM12.4112 15.7461L12.4047 15.5855L12.4047 15.5855L12.4112 15.7461ZM12.406 15.7463L12.4083 15.9072L12.4125 15.907L12.406 15.7463ZM12.406 15.7463L12.4037 15.5855L12.3995 15.5857L12.406 15.7463ZM11.9147 15.7781L11.8961 15.6184L11.8961 15.6184L11.9147 15.7781ZM10.893 16.3265L11.0033 16.4436L11.0033 16.4436L10.893 16.3265ZM10.8828 16.3361L10.9931 16.4532L10.9931 16.4532L10.8828 16.3361ZM9.76336 16.819L9.75927 16.9798L9.75927 16.9798L9.76336 16.819ZM9.05902 16.6177L9.15042 16.4855L9.15042 16.4855L9.05902 16.6177ZM7.28684 16.2026L7.2383 16.0493L7.2383 16.0493L7.28684 16.2026ZM6.74508 16.4813L6.65363 16.349L6.65362 16.349L6.74508 16.4813ZM6.63454 16.5598L6.47389 16.5666L6.48654 16.8647L6.72857 16.6902L6.63454 16.5598ZM8.3077 12.5642L8.42102 12.6783L8.3077 12.5642ZM8.75098 16.9915L8.74079 17.152L9.33183 17.1895L8.84093 16.8582L8.75098 16.9915ZM7.43246 16.6625L7.481 16.8158L7.481 16.8158L7.43246 16.6625ZM7.01942 16.878L6.92798 16.7458L6.92797 16.7458L7.01942 16.878ZM6.91175 16.9546L7.00479 17.0858L7.00594 17.0849L6.91175 16.9546ZM6.91166 16.9547L6.81861 16.8235L6.81704 16.8247L6.91166 16.9547ZM6.91164 16.9547L7.00584 17.085L7.00626 17.0847L6.91164 16.9547ZM6.83606 17.0089L6.74326 16.8776L6.74326 16.8776L6.83606 17.0089ZM6.76658 17.0565L6.67808 16.9223L6.79811 17.2142L6.76658 17.0565ZM7.49181 16.9115L7.502 16.751L7.48095 16.7497L7.46027 16.7538L7.49181 16.9115ZM4.95081 7.94635C4.93094 7.90664 4.94703 7.85835 4.98674 7.83848L4.84285 7.55088C4.64431 7.65021 4.56388 7.89169 4.66321 8.09024L4.95081 7.94635ZM5.05868 7.98228C5.01897 8.00215 4.97068 7.98606 4.95081 7.94635L4.66321 8.09024C4.76254 8.28878 5.00402 8.36921 5.20257 8.26988L5.05868 7.98228ZM5.62716 7.69787L5.05868 7.98228L5.20257 8.26988L5.77104 7.98547L5.62716 7.69787ZM8.06055 12.2012L5.84289 7.76971L5.55531 7.91363L7.77296 12.3452L8.06055 12.2012ZM6.60214 18.068C5.88467 16.0149 6.52727 13.9117 8.03126 12.3861L7.80225 12.1603C6.22648 13.7587 5.5343 15.9871 6.29856 18.1741L6.60214 18.068ZM6.88062 18.7262C6.77254 18.5102 6.67985 18.2904 6.60214 18.068L6.29856 18.1741C6.38078 18.4094 6.47881 18.6418 6.59304 18.8701L6.88062 18.7262ZM14.6047 21.1989C11.7413 22.6319 8.28228 21.5271 6.88062 18.7262L6.59304 18.8701C8.07739 21.8362 11.7328 22.9957 14.7486 21.4865L14.6047 21.1989ZM17.2557 13.5342C18.6574 16.3351 17.4681 19.766 14.6047 21.1989L14.7486 21.4865C17.7644 19.9773 19.0277 16.3565 17.5433 13.3903L17.2557 13.5342ZM16.8096 12.7921C16.9749 13.0241 17.1244 13.2717 17.2557 13.5342L17.5433 13.3903C17.4045 13.1129 17.2465 12.851 17.0715 12.6054L16.8096 12.7921ZM11.6433 10.6365C13.6656 10.4141 15.6121 11.1117 16.8096 12.7921L17.0715 12.6054C15.7953 10.8146 13.726 10.084 11.6082 10.3169L11.6433 10.6365ZM9.24049 6.06949L11.482 10.5486L11.7696 10.4047L9.52808 5.92558L9.24049 6.06949ZM9.75737 5.63103L9.31233 5.85374L9.45624 6.14133L9.90128 5.91862L9.75737 5.63103ZM9.79329 5.52316C9.81316 5.56287 9.79708 5.61116 9.75737 5.63103L9.90128 5.91862C10.0998 5.81927 10.1802 5.57778 10.0809 5.37924L9.79329 5.52316ZM9.68541 5.48724C9.72512 5.46737 9.77342 5.48345 9.79329 5.52316L10.0809 5.37924C9.98152 5.18071 9.74003 5.10031 9.5415 5.19966L9.68541 5.48724ZM9.02468 5.81789L9.68541 5.48724L9.5415 5.19966L8.88077 5.5303L9.02468 5.81789ZM5.77091 7.44616L9.02468 5.81789L8.88077 5.5303L5.62699 7.15858L5.77091 7.44616ZM5.77089 7.44617L5.77091 7.44616L5.62699 7.15858L5.62697 7.15859L5.77089 7.44617ZM4.98674 7.83848L5.77087 7.44618L5.62699 7.15858L4.84285 7.55088L4.98674 7.83848ZM5.9867 7.69778L8.23698 12.1945L8.52457 12.0506L6.27428 7.55386L5.9867 7.69778ZM8.88095 6.06962L6.05853 7.48203L6.20245 7.76961L9.02486 6.3572L8.88095 6.06962ZM11.3699 10.6841L9.0967 6.14145L8.80912 6.28537L11.0824 10.828L11.3699 10.6841ZM11.5943 10.804C11.5023 10.8151 11.4119 10.768 11.3699 10.6841L11.0824 10.828C11.1866 11.0363 11.4093 11.1501 11.6326 11.1233L11.5943 10.804ZM16.5938 12.7698C15.4161 11.21 13.5451 10.5697 11.5943 10.804L11.6326 11.1233C13.4899 10.9002 15.2398 11.5102 16.3372 12.9636L16.5938 12.7698ZM16.4081 13.3748L16.6115 12.9341L16.3195 12.7993L16.1161 13.24L16.4081 13.3748ZM16.2977 13.5624C16.3343 13.4985 16.368 13.4398 16.3972 13.3945L16.1269 13.2203C16.0922 13.2741 16.054 13.3409 16.0187 13.4025L16.2977 13.5624ZM16.2756 13.6009L16.2976 13.5625L16.0187 13.4024L15.9967 13.4408L16.2756 13.6009ZM16.1031 13.883C16.1678 13.7863 16.2251 13.6887 16.2755 13.6011L15.9968 13.4407C15.947 13.5271 15.8942 13.6169 15.8358 13.7043L16.1031 13.883ZM15.6412 14.3487C15.8178 14.2603 15.9722 14.0788 16.1031 13.883L15.8358 13.7043C15.7108 13.8912 15.5951 14.0122 15.4973 14.0611L15.6412 14.3487ZM14.9309 14.4926C15.0733 14.4785 15.2056 14.4645 15.3217 14.4442C15.4372 14.424 15.5469 14.3959 15.6412 14.3487L15.4973 14.0611C15.4438 14.0879 15.3694 14.1094 15.2663 14.1275C15.1637 14.1454 15.0429 14.1583 14.8991 14.1726L14.9309 14.4926ZM14.9057 14.4951L14.9308 14.4926L14.8992 14.1726L14.874 14.1751L14.9057 14.4951ZM14.1645 14.6527C14.3695 14.5501 14.6465 14.5207 14.9057 14.4951L14.874 14.1751C14.6298 14.1992 14.2888 14.2308 14.0206 14.3651L14.1645 14.6527ZM13.8812 14.9098C13.959 14.8045 14.0502 14.7099 14.1645 14.6527L14.0206 14.3651C13.8419 14.4545 13.7144 14.5943 13.6225 14.7187L13.8812 14.9098ZM13.6724 15.2476C13.7371 15.1328 13.8049 15.0131 13.8812 14.9098L13.6225 14.7187C13.5325 14.8406 13.4552 14.978 13.3923 15.0896L13.6724 15.2476ZM13.6688 15.254L13.6724 15.2476L13.3923 15.0896L13.3887 15.096L13.6688 15.254ZM13.4672 15.5816C13.538 15.4857 13.6019 15.3725 13.6688 15.254L13.3887 15.096C13.3195 15.2187 13.2654 15.3135 13.2085 15.3905L13.4672 15.5816ZM13.2412 15.7905C13.3232 15.7494 13.3964 15.6773 13.4672 15.5816L13.2085 15.3905C13.1518 15.4672 13.1148 15.4941 13.0973 15.5029L13.2412 15.7905ZM12.8899 15.8767C13.0356 15.8598 13.1559 15.8332 13.2412 15.7905L13.0973 15.5029C13.0636 15.5198 12.989 15.5415 12.8528 15.5573L12.8899 15.8767ZM12.4177 15.9068C12.5834 15.9001 12.7452 15.8936 12.8899 15.8767L12.8528 15.5573C12.7225 15.5725 12.5735 15.5787 12.4047 15.5855L12.4177 15.9068ZM12.4125 15.907L12.4177 15.9068L12.4047 15.5855L12.3996 15.5857L12.4125 15.907ZM12.4083 15.9071L12.4083 15.9071L12.4037 15.5856L12.4037 15.5856L12.4083 15.9071ZM11.9333 15.9378C12.0835 15.9203 12.2498 15.9135 12.4125 15.907L12.3995 15.5857C12.2395 15.5921 12.0606 15.5992 11.8961 15.6184L11.9333 15.9378ZM11.5286 16.04C11.6396 15.9844 11.7826 15.9553 11.9333 15.9378L11.8961 15.6184C11.7354 15.6371 11.5471 15.6711 11.3847 15.7524L11.5286 16.04ZM11.0033 16.4436C11.1588 16.2971 11.3247 16.142 11.5286 16.04L11.3847 15.7524C11.1323 15.8787 10.934 16.0669 10.7827 16.2095L11.0033 16.4436ZM10.9931 16.4532L11.0033 16.4436L10.7827 16.2095L10.7726 16.2191L10.9931 16.4532ZM10.4959 16.8396C10.6798 16.7475 10.8317 16.6052 10.9931 16.4532L10.7726 16.2191C10.6046 16.3774 10.4864 16.4848 10.3519 16.552L10.4959 16.8396ZM9.75927 16.9798C10.0435 16.987 10.3139 16.9307 10.4959 16.8396L10.3519 16.552C10.2271 16.6145 10.0113 16.6645 9.76746 16.6583L9.75927 16.9798ZM8.96762 16.75C9.18767 16.9021 9.47533 16.9725 9.75927 16.9798L9.76746 16.6583C9.52506 16.6521 9.30414 16.5917 9.15042 16.4855L8.96762 16.75ZM7.33538 16.3559C7.73835 16.2283 8.26169 16.2623 8.96762 16.75L9.15042 16.4855C8.38223 15.9547 7.75657 15.8852 7.2383 16.0493L7.33538 16.3559ZM6.83653 16.6135C6.97311 16.5191 7.13705 16.4187 7.33538 16.3559L7.2383 16.0493C6.99529 16.1262 6.80069 16.2473 6.65363 16.349L6.83653 16.6135ZM6.72857 16.6902C6.76398 16.6647 6.80147 16.6378 6.83653 16.6135L6.65362 16.349C6.6157 16.3752 6.57592 16.4038 6.54051 16.4293L6.72857 16.6902ZM8.19438 12.4502C7.05334 13.5837 6.40939 15.0461 6.47389 16.5666L6.79519 16.5529C6.73505 15.1353 7.33462 13.7576 8.42102 12.6783L8.19438 12.4502ZM8.23698 12.1945C8.27996 12.2804 8.26159 12.3834 8.19438 12.4502L8.42102 12.6783C8.58414 12.5163 8.6313 12.2639 8.52457 12.0506L8.23698 12.1945ZM8.84093 16.8582C8.18474 16.4154 7.72288 16.4018 7.38392 16.5092L7.481 16.8158C7.70775 16.744 8.06853 16.7249 8.66104 17.1248L8.84093 16.8582ZM7.38392 16.5092C7.20794 16.5649 7.05934 16.6549 6.92798 16.7458L7.11087 17.0103C7.23188 16.9266 7.34978 16.8573 7.481 16.8158L7.38392 16.5092ZM6.92797 16.7458C6.88657 16.7744 6.85169 16.7996 6.81755 16.8243L7.00594 17.0849C7.04023 17.0601 7.07259 17.0367 7.11087 17.0103L6.92797 16.7458ZM6.81871 16.8235L6.81862 16.8235L7.00469 17.0858L7.00479 17.0857L6.81871 16.8235ZM6.81704 16.8247L6.81703 16.8247L7.00626 17.0847L7.00627 17.0847L6.81704 16.8247ZM6.81745 16.8244C6.79328 16.8418 6.76954 16.859 6.74326 16.8776L6.92886 17.1402C6.95674 17.1205 6.9818 17.1024 7.00584 17.085L6.81745 16.8244ZM6.74326 16.8776C6.72171 16.8928 6.70001 16.9078 6.67808 16.9223L6.85508 17.1908C6.88105 17.1737 6.90587 17.1564 6.92886 17.1402L6.74326 16.8776ZM6.79811 17.2142L7.52334 17.0692L7.46027 16.7538L6.73504 16.8989L6.79811 17.2142ZM7.48161 17.072L8.74079 17.152L8.76118 16.831L7.502 16.751L7.48161 17.072Z" fill="url(#paint1_linear_29_132)"/>
<ellipse cx="7.29332" cy="4.31929" rx="0.572045" ry="0.572045" transform="rotate(-26.5846 7.29332 4.31929)" fill="url(#paint2_linear_29_132)"/>
<ellipse cx="4.64946" cy="3.86199" rx="0.762726" ry="0.762726" transform="rotate(-26.5846 4.64946 3.86199)" fill="url(#paint3_linear_29_132)"/>
</g>
<path d="M42.0475 17.9771C41.6715 18.3613 41.2506 18.7209 40.7847 19.056C40.3188 19.3911 39.8161 19.6813 39.2766 19.9265C38.7371 20.1717 38.165 20.3638 37.5601 20.5028C36.9553 20.6417 36.3218 20.7112 35.6597 20.7112C34.826 20.7112 34.025 20.609 33.2566 20.4047C32.4883 20.2004 31.769 19.9102 31.0987 19.5342C30.4367 19.15 29.8277 18.6964 29.2719 18.1733C28.7243 17.642 28.2543 17.0535 27.8619 16.4077C27.4778 15.762 27.1753 15.0672 26.9546 14.3234C26.7421 13.5796 26.6359 12.8031 26.6359 11.9939C26.6359 11.1847 26.7421 10.4082 26.9546 9.66436C27.1753 8.92055 27.4778 8.22578 27.8619 7.58005C28.2543 6.93432 28.7243 6.3499 29.2719 5.82677C29.8277 5.29548 30.4367 4.84184 31.0987 4.46584C31.769 4.08985 32.4883 3.79968 33.2566 3.59533C34.025 3.39099 34.826 3.28882 35.6597 3.28882C36.3136 3.28882 36.9389 3.35421 37.5356 3.48499C38.1323 3.61577 38.6963 3.80377 39.2276 4.04898C39.767 4.28602 40.2697 4.5721 40.7356 4.90723C41.2097 5.24235 41.647 5.61426 42.0475 6.02295L40.1716 7.99691C39.624 7.34301 38.9578 6.83624 38.1731 6.47659C37.3885 6.10877 36.5506 5.92486 35.6597 5.92486C34.8342 5.92486 34.0576 6.08016 33.3302 6.39076C32.6109 6.70137 31.9815 7.13049 31.442 7.67813C30.9026 8.2176 30.4734 8.85924 30.1547 9.60306C29.8441 10.3469 29.6888 11.1479 29.6888 12.0061C29.6888 12.8644 29.8441 13.6654 30.1547 14.4092C30.4734 15.1449 30.9026 15.7865 31.442 16.3342C31.9815 16.8736 32.6109 17.2987 33.3302 17.6093C34.0576 17.9199 34.8342 18.0752 35.6597 18.0752C36.5425 18.0752 37.3762 17.8913 38.1609 17.5234C38.9537 17.1556 39.6281 16.6488 40.1839 16.0031L42.0475 17.9771Z" fill="#243942"/>
<path d="M45.8238 3.68116H57.2507V6.32946H48.8767V10.7923H56.1105V13.4161H48.8767V17.7196H57.3611V20.3557H45.8238V3.68116Z" fill="#243942"/>
<path d="M60.2914 3.68116H63.3443V17.7196H70.8723V20.3557H60.2914V3.68116Z" fill="#243942"/>
<path d="M77.7555 3.67627V16.7274C77.7555 17.1141 77.7787 17.4428 77.8251 17.7134C77.8715 17.9764 77.9566 18.1891 78.0803 18.3515C78.2118 18.5139 78.3936 18.6299 78.6256 18.6995C78.8653 18.7691 79.1747 18.8039 79.5537 18.8039H80.0293V20.0104H79.4956C78.846 20.0104 78.3201 19.9486 77.9179 19.8248C77.5235 19.7011 77.2141 19.5077 76.9898 19.2448C76.7655 18.9818 76.6147 18.6415 76.5374 18.2239C76.4601 17.8063 76.4214 17.3074 76.4214 16.7274V3.67627H77.7555Z" fill="#243942"/>
<path d="M91.4214 18.0151C91.1276 18.3631 90.7757 18.6763 90.3658 18.9548C89.9636 19.2332 89.5266 19.4691 89.0548 19.6624C88.5908 19.8558 88.1036 20.0027 87.5931 20.1033C87.0827 20.2038 86.58 20.2541 86.085 20.2541C85.5204 20.2541 84.9868 20.1883 84.4841 20.0568C83.9891 19.9254 83.556 19.7166 83.1848 19.4304C82.8135 19.1442 82.5196 18.773 82.3031 18.3167C82.0943 17.8527 81.9899 17.2958 81.9899 16.6462C81.9899 16.012 82.1523 15.4899 82.4771 15.08C82.8019 14.6624 83.2273 14.3376 83.7532 14.1055C84.2868 13.8658 84.8901 13.6995 85.563 13.6067C86.2358 13.5139 86.9164 13.4675 87.6047 13.4675C87.8445 13.4675 88.1268 13.4714 88.4516 13.4791C88.7764 13.4868 89.1129 13.4984 89.4609 13.5139C89.8089 13.5216 90.1453 13.5332 90.4702 13.5487C90.8027 13.5564 91.0928 13.5603 91.3402 13.5603V11.9014C91.3402 11.5456 91.259 11.2014 91.0966 10.8689C90.9419 10.5286 90.6983 10.227 90.3658 9.964C90.0409 9.70104 89.6233 9.49223 89.1129 9.33755C88.6101 9.17513 88.0069 9.09392 87.3031 9.09392C86.7927 9.09392 86.3054 9.15966 85.8414 9.29114C85.3851 9.42262 84.9829 9.6005 84.6349 9.82479C84.2868 10.0413 84.0084 10.2966 83.7996 10.5905C83.5985 10.8766 83.498 11.1782 83.498 11.4953H82.1291C82.1368 10.9771 82.2837 10.5015 82.5699 10.0684C82.8561 9.62757 83.235 9.25247 83.7068 8.94311C84.1863 8.62602 84.7354 8.3824 85.3541 8.21225C85.9729 8.03437 86.6186 7.94543 87.2915 7.94543C88.235 7.94543 89.0432 8.05757 89.7161 8.28186C90.3967 8.49841 90.9535 8.78843 91.3866 9.15193C91.8275 9.50769 92.1523 9.91373 92.3611 10.37C92.5699 10.8186 92.6744 11.2788 92.6744 11.7505V20.0104H91.5375L91.4214 18.0151ZM86.4562 19.152C86.9667 19.152 87.481 19.0862 87.9992 18.9548C88.5251 18.8155 89.0123 18.6261 89.4609 18.3863C89.9172 18.1466 90.3116 17.8604 90.6442 17.5278C90.9767 17.1953 91.2088 16.8279 91.3402 16.4257V14.5812C91.1005 14.5812 90.8182 14.5773 90.4934 14.5696C90.1763 14.5541 89.8476 14.5425 89.5073 14.5348C89.1747 14.5193 88.8499 14.5077 88.5328 14.5C88.2234 14.4922 87.9605 14.4884 87.7439 14.4884C87.2567 14.4884 86.754 14.5193 86.2358 14.5812C85.7176 14.6353 85.242 14.7436 84.8089 14.906C84.3835 15.0607 84.0316 15.2811 83.7532 15.5673C83.4825 15.8534 83.3472 16.2208 83.3472 16.6694C83.3472 17.1334 83.4245 17.524 83.5792 17.8411C83.7416 18.1582 83.962 18.4172 84.2404 18.6183C84.5189 18.8117 84.8476 18.9509 85.2265 19.036C85.6055 19.121 86.0154 19.1597 86.4562 19.152Z" fill="#243942"/>
<path d="M109.275 14.1287C109.275 14.995 109.113 15.807 108.788 16.565C108.471 17.3151 108.03 17.9687 107.466 18.5255C106.909 19.0824 106.247 19.5232 105.482 19.848C104.716 20.1651 103.889 20.3237 102.999 20.3237C102.435 20.3237 101.893 20.2541 101.375 20.1149C100.865 19.9756 100.389 19.7862 99.9482 19.5464C99.5073 19.2989 99.109 19.0128 98.7533 18.6879C98.4052 18.3554 98.1075 17.9957 97.86 17.609L97.7556 20.0104H96.5723V3.67627H97.9064V10.6485C98.1616 10.254 98.4632 9.89053 98.8113 9.55796C99.167 9.2254 99.5615 8.94311 99.9946 8.71109C100.428 8.47134 100.896 8.28572 101.398 8.15425C101.909 8.01503 102.446 7.94543 103.011 7.94543C103.9 7.94543 104.728 8.10784 105.493 8.43267C106.259 8.74976 106.92 9.18673 107.477 9.74358C108.042 10.3004 108.483 10.9578 108.8 11.7157C109.117 12.4659 109.275 13.2703 109.275 14.1287ZM107.918 14.1287C107.918 13.425 107.787 12.7676 107.524 12.1566C107.261 11.5456 106.901 11.0197 106.445 10.5788C105.996 10.1303 105.466 9.77838 104.855 9.52316C104.244 9.26794 103.591 9.14033 102.895 9.14033C102.199 9.14033 101.545 9.26794 100.934 9.52316C100.323 9.77838 99.7896 10.1303 99.3333 10.5788C98.877 11.0197 98.5174 11.5456 98.2544 12.1566C97.9915 12.7676 97.86 13.425 97.86 14.1287C97.86 14.848 97.9915 15.5131 98.2544 16.1241C98.5174 16.7274 98.877 17.2533 99.3333 17.7018C99.7896 18.1504 100.323 18.5023 100.934 18.7575C101.545 19.005 102.199 19.1288 102.895 19.1288C103.591 19.1288 104.244 19.005 104.855 18.7575C105.466 18.5023 105.996 18.1504 106.445 17.7018C106.901 17.2533 107.261 16.7235 107.524 16.1125C107.787 15.5015 107.918 14.8403 107.918 14.1287Z" fill="#243942"/>
<path d="M112.176 18.0383C112.802 18.4327 113.452 18.7189 114.125 18.8967C114.805 19.0746 115.463 19.1636 116.097 19.1636C117.427 19.1636 118.429 18.947 119.101 18.5139C119.782 18.0808 120.122 17.5046 120.122 16.7854C120.122 16.4064 120.029 16.0893 119.844 15.8341C119.666 15.5711 119.411 15.3546 119.078 15.1844C118.746 15.0143 118.343 14.8789 117.872 14.7784C117.4 14.6701 116.874 14.5773 116.294 14.5C115.969 14.4613 115.633 14.4149 115.285 14.3608C114.937 14.2989 114.596 14.2216 114.264 14.1287C113.931 14.0359 113.618 13.9161 113.324 13.7691C113.03 13.6222 112.771 13.4443 112.547 13.2355C112.33 13.0189 112.156 12.7637 112.025 12.4698C111.893 12.1682 111.828 11.8163 111.828 11.4141C111.828 10.9733 111.909 10.5479 112.071 10.138C112.241 9.72038 112.516 9.34915 112.895 9.02432C113.282 8.69949 113.788 8.4404 114.415 8.24705C115.049 8.04597 115.83 7.94543 116.758 7.94543C117.183 7.94543 117.597 7.98023 117.999 8.04984C118.409 8.11944 118.796 8.21225 119.159 8.32826C119.531 8.43654 119.879 8.56415 120.203 8.71109C120.528 8.8503 120.826 8.99725 121.097 9.15193L120.668 10.2192C120.435 10.0955 120.176 9.96786 119.89 9.83639C119.604 9.69718 119.295 9.57343 118.962 9.46516C118.637 9.35688 118.293 9.26794 117.93 9.19833C117.566 9.12873 117.195 9.09392 116.816 9.09392C116.128 9.09392 115.548 9.16353 115.076 9.30274C114.612 9.43422 114.237 9.60823 113.951 9.82479C113.672 10.0413 113.471 10.2888 113.347 10.5672C113.231 10.8457 113.173 11.1241 113.173 11.4025C113.173 12.0212 113.49 12.4891 114.125 12.8062C114.766 13.1233 115.698 13.336 116.92 13.4443C117.245 13.483 117.582 13.5332 117.93 13.5951C118.285 13.6492 118.633 13.7266 118.974 13.8271C119.322 13.9199 119.65 14.0437 119.96 14.1984C120.269 14.3453 120.54 14.5348 120.772 14.7668C121.004 14.9911 121.19 15.2656 121.329 15.5905C121.468 15.9076 121.538 16.2827 121.538 16.7158C121.538 17.2726 121.418 17.7753 121.178 18.2239C120.938 18.6647 120.59 19.0437 120.134 19.3608C119.685 19.6701 119.128 19.906 118.463 20.0684C117.798 20.2386 117.044 20.3237 116.201 20.3237C115.389 20.3237 114.604 20.2309 113.846 20.0452C113.088 19.8674 112.384 19.5657 111.735 19.1404L112.176 18.0383Z" fill="#243942"/>
<defs>
<linearGradient id="paint0_linear_29_132" x1="7.25963" y1="6.52127" x2="14.6767" y2="21.3427" gradientUnits="userSpaceOnUse">
<stop stop-color="#8447D1"/>
<stop offset="1" stop-color="#2E8EB8"/>
</linearGradient>
<linearGradient id="paint1_linear_29_132" x1="7.25963" y1="6.52127" x2="14.6767" y2="21.3427" gradientUnits="userSpaceOnUse">
<stop stop-color="#8447D1"/>
<stop offset="1" stop-color="#2E8EB8"/>
</linearGradient>
<linearGradient id="paint2_linear_29_132" x1="7.29332" y1="3.74724" x2="7.29332" y2="4.89133" gradientUnits="userSpaceOnUse">
<stop stop-color="#8447D1"/>
<stop offset="1" stop-color="#2E8EB8"/>
</linearGradient>
<linearGradient id="paint3_linear_29_132" x1="4.64946" y1="3.09927" x2="4.64946" y2="4.62472" gradientUnits="userSpaceOnUse">
<stop stop-color="#8447D1"/>
<stop offset="1" stop-color="#2E8EB8"/>
</linearGradient>
<clipPath id="clip0_29_132">
<rect width="19.9769" height="24" rx="0.554913" fill="white"/>
</clipPath>
</defs>
</svg>
