<svg width="16" height="16" viewBox="0 0 16 16" fill="none" xmlns="http://www.w3.org/2000/svg">
<g clip-path="url(#clip0_29_1033)">
<path d="M13.4619 5.80875C13.4241 5.71738 13.36 5.63928 13.2778 5.58432C13.1956 5.52936 13.0989 5.50002 13 5.5H3.00003C2.90108 5.49992 2.80433 5.5292 2.72204 5.58414C2.63974 5.63908 2.57559 5.71719 2.53772 5.8086C2.49984 5.90002 2.48994 6.00061 2.50926 6.09765C2.52859 6.1947 2.57627 6.28382 2.64628 6.35375L7.64628 11.3538C7.69271 11.4002 7.74786 11.4371 7.80856 11.4623C7.86926 11.4874 7.93432 11.5004 8.00003 11.5004C8.06574 11.5004 8.1308 11.4874 8.1915 11.4623C8.2522 11.4371 8.30734 11.4002 8.35378 11.3538L13.3538 6.35375C13.4237 6.28379 13.4713 6.19466 13.4905 6.09765C13.5098 6.00064 13.4998 5.9001 13.4619 5.80875Z" fill="#3E525B"/>
</g>
<defs>
<clipPath id="clip0_29_1033">
<rect width="16" height="16" fill="white"/>
</clipPath>
</defs>
</svg>
