<svg width="21" height="20" viewBox="0 0 21 20" fill="none" xmlns="http://www.w3.org/2000/svg">
<path d="M10.747 0C5.08511 0 0.493896 4.59041 0.493896 10.2531C0.493896 14.7833 3.43173 18.6266 7.50564 19.9824C8.01804 20.0773 8.20621 19.76 8.20621 19.4891C8.20621 19.2447 8.19664 18.4369 8.1923 17.5802C5.33978 18.2004 4.73789 16.3704 4.73789 16.3704C4.27149 15.1853 3.59947 14.8703 3.59947 14.8703C2.66925 14.2339 3.66959 14.2469 3.66959 14.2469C4.69921 14.3193 5.24136 15.3035 5.24136 15.3035C6.15582 16.871 7.63994 16.4178 8.22503 16.1559C8.31702 15.4931 8.58279 15.0409 8.87597 14.7849C6.59866 14.5255 4.20458 13.6464 4.20458 9.71767C4.20458 8.59831 4.60512 7.6836 5.26106 6.96559C5.15459 6.7073 4.80367 5.6645 5.36037 4.25219C5.36037 4.25219 6.22136 3.97662 8.18072 5.3032C8.99852 5.07595 9.87568 4.96208 10.747 4.95823C11.6184 4.96208 12.4962 5.07595 13.3156 5.3032C15.2726 3.97662 16.1324 4.25219 16.1324 4.25219C16.6905 5.6645 16.3394 6.7073 16.2329 6.96559C16.8903 7.6836 17.2881 8.59823 17.2881 9.71767C17.2881 13.6557 14.8895 14.5229 12.6064 14.7767C12.9742 15.0948 13.3019 15.7189 13.3019 16.6754C13.3019 18.0472 13.29 19.1514 13.29 19.4891C13.29 19.762 13.4745 20.0817 13.9943 19.981C18.066 18.6237 21.0001 14.7818 21.0001 10.2531C21.0001 4.59041 16.4095 0 10.747 0Z" fill="#8447D1"/>
</svg>
