<svg width="242" height="30" viewBox="0 0 242 30" fill="none" xmlns="http://www.w3.org/2000/svg">
<rect x="0.47168" width="30" height="30" rx="4.28571" fill="url(#paint0_linear_2568_5955)"/>
<g clip-path="url(#clip0_2568_5955)">
<path d="M21.7458 19.806L17.6148 12.9187V9.10707H18.1505C18.2926 9.10707 18.4288 9.05063 18.5293 8.95017C18.6297 8.8497 18.6862 8.71344 18.6862 8.57136C18.6862 8.42928 18.6297 8.29302 18.5293 8.19255C18.4288 8.09209 18.2926 8.03564 18.1505 8.03564H12.7933C12.6513 8.03564 12.515 8.09209 12.4145 8.19255C12.3141 8.29302 12.2576 8.42928 12.2576 8.57136C12.2576 8.71344 12.3141 8.8497 12.4145 8.95017C12.515 9.05063 12.6513 9.10707 12.7933 9.10707H13.329V12.9187L9.19802 19.806C9.10059 19.9684 9.04796 20.1538 9.0455 20.3432C9.04304 20.5325 9.09083 20.7192 9.18401 20.8841C9.27718 21.049 9.41241 21.1863 9.57591 21.2819C9.73942 21.3776 9.92535 21.4281 10.1148 21.4285H20.829C21.0186 21.4285 21.2048 21.3782 21.3686 21.2827C21.5324 21.1872 21.6679 21.05 21.7613 20.885C21.8547 20.72 21.9027 20.5332 21.9003 20.3437C21.8979 20.1541 21.8453 19.9685 21.7478 19.806H21.7458ZM15.7136 16.9325C14.6482 16.3935 13.6344 16.1075 12.6855 16.0747L14.3241 13.3426C14.3742 13.2595 14.4006 13.1643 14.4005 13.0673V9.10707H16.5433V13.0673C16.5432 13.1643 16.5696 13.2595 16.6197 13.3426L19.179 17.6115C18.3782 17.7682 17.2324 17.7013 15.7136 16.9325Z" fill="white"/>
</g>
<path d="M49.4717 10.49C46.9917 10.49 44.9717 12.51 44.9717 14.99C44.9717 17.47 46.9917 19.49 49.4717 19.49H56.4717V21.99H49.4717C45.6117 21.99 42.4717 18.85 42.4717 14.99C42.4717 11.13 45.6117 7.98997 49.4717 7.98997H56.4717V10.49H49.4717Z" fill="url(#paint1_linear_2568_5955)"/>
<path d="M62.2525 10.49C61.5525 10.49 60.9725 11.07 60.9725 11.77V13.07H69.9725V15.57H60.9725V18.21C60.9725 18.91 61.5525 19.49 62.2525 19.49H72.4725V21.99H62.2525C60.1725 21.99 58.4925 20.29 58.4925 18.21V11.77C58.4925 9.68997 60.1725 7.98997 62.2525 7.98997H72.4725V10.49H62.2525Z" fill="url(#paint2_linear_2568_5955)"/>
<path d="M78.6686 19.49L86.0086 19.51V22.01H78.9086C78.2086 22.01 77.5486 21.85 76.9486 21.55C76.0686 21.11 75.3486 20.39 74.9286 19.51C74.6286 18.91 74.4686 18.25 74.4686 17.55V8.00997H76.9686V17.79C77.0886 18.67 77.7886 19.37 78.6686 19.49Z" fill="url(#paint3_linear_2568_5955)"/>
<path d="M109.25 9.08997L109.27 9.12997C109.95 9.80997 110.37 10.75 110.37 11.79C110.37 13.31 109.47 14.63 108.17 15.23C107.83 15.39 107.47 15.49 107.09 15.53C107.05 15.53 107.01 15.53 106.97 15.53V15.55H100.27V21.99H97.7698V7.98997H106.59C107.63 7.98997 108.57 8.40997 109.25 9.08997ZM107.13 12.97V12.95C107.59 12.75 107.89 12.29 107.89 11.79C107.89 11.33 107.65 11.01 107.51 10.87C107.35 10.71 107.05 10.51 106.61 10.51H100.27V13.09H106.61C106.79 13.09 106.97 13.05 107.13 12.97Z" fill="url(#paint4_linear_2568_5955)"/>
<path d="M116.559 19.49L123.899 19.51V22.01H116.799C116.099 22.01 115.439 21.85 114.839 21.55C113.959 21.11 113.239 20.39 112.819 19.51C112.519 18.91 112.359 18.25 112.359 17.55V8.00997H114.859V17.79C114.979 18.67 115.679 19.37 116.559 19.49Z" fill="url(#paint5_linear_2568_5955)"/>
<path d="M138.114 19.49L139.394 21.99H136.594L135.314 19.49L132.254 13.49L129.194 19.49L127.914 21.99H125.114L126.394 19.49L132.254 7.98997L138.114 19.49Z" fill="url(#paint6_linear_2568_5955)"/>
<path d="M147.595 7.96997H150.735L145.315 14.99L145.015 15.37V21.97H142.515V15.41L142.175 14.99L136.755 7.96997H139.915L143.755 12.95L147.595 7.96997ZM136.735 22.03V21.99H136.775L136.735 22.03ZM150.735 22.03L150.715 21.99H150.735V22.03Z" fill="url(#paint7_linear_2568_5955)"/>
<path d="M157.406 10.49C154.926 10.49 152.906 12.51 152.906 14.99C152.906 17.47 154.926 19.49 157.406 19.49H161.906V16.81H157.406V14.31H164.406V21.99H157.406C153.546 21.99 150.406 18.85 150.406 14.99C150.406 11.13 153.546 7.98997 157.406 7.98997H164.406V10.49H157.406Z" fill="url(#paint8_linear_2568_5955)"/>
<path d="M175.702 15.53L177.702 19.51L178.982 22.01H176.182L174.902 19.51L173.562 16.89L173.502 16.77C173.062 16.05 172.282 15.57 171.382 15.57H168.882V22.01H166.382V8.00997H175.222C176.262 8.00997 177.202 8.42997 177.882 9.10997C178.562 9.80997 178.982 10.75 178.982 11.79C178.982 13.31 178.082 14.63 176.782 15.23C176.442 15.39 176.082 15.49 175.702 15.53ZM168.882 13.09L175.222 13.07C175.402 13.07 175.582 13.03 175.742 12.95C176.202 12.75 176.502 12.29 176.502 11.79C176.502 11.33 176.262 11.01 176.122 10.87C175.962 10.71 175.662 10.51 175.222 10.51H168.882V13.09Z" fill="url(#paint9_linear_2568_5955)"/>
<path d="M187.512 7.98997C191.372 7.98997 194.512 11.13 194.512 14.99C194.512 18.85 191.372 21.99 187.512 21.99C183.652 21.99 180.512 18.85 180.512 14.99C180.512 11.13 183.652 7.98997 187.512 7.98997ZM187.512 19.49C189.992 19.49 192.012 17.47 192.012 14.99C192.012 12.51 189.992 10.49 187.512 10.49C185.032 10.49 183.012 12.51 183.012 14.99C183.012 17.47 185.032 19.49 187.512 19.49Z" fill="url(#paint10_linear_2568_5955)"/>
<path d="M207.512 7.98997H210.012V14.99C210.012 18.85 206.872 21.99 203.012 21.99C199.152 21.99 196.012 18.85 196.012 14.99V7.98997H198.512V14.99C198.512 17.47 200.532 19.49 203.012 19.49C205.492 19.49 207.512 17.47 207.512 14.99V7.98997Z" fill="url(#paint11_linear_2568_5955)"/>
<path d="M223.508 7.98997L226.008 8.00997V22.01L223.508 20.09L214.508 13.15V22.01H212.008V8.04997L214.508 9.96997L223.508 16.91V7.98997Z" fill="url(#paint12_linear_2568_5955)"/>
<path d="M228.004 7.98997L234.984 8.00997C238.844 8.00997 241.984 11.13 241.984 14.99C241.984 16.71 241.364 18.29 240.324 19.51C240.204 19.65 240.064 19.79 239.924 19.93C238.664 21.21 236.924 21.99 235.004 21.99H228.004V7.98997ZM230.484 10.51V19.51H234.984C237.464 19.51 239.484 17.49 239.484 15.01C239.484 12.53 237.464 10.51 234.984 10.51H230.484Z" fill="url(#paint13_linear_2568_5955)"/>
<path d="M129 17H136V19H129V17Z" fill="url(#paint14_linear_2568_5955)"/>
<defs>
<linearGradient id="paint0_linear_2568_5955" x1="0.47168" y1="15" x2="30.4717" y2="15" gradientUnits="userSpaceOnUse">
<stop stop-color="#A83EFB"/>
<stop offset="1" stop-color="#BC68FC"/>
</linearGradient>
<linearGradient id="paint1_linear_2568_5955" x1="42" y1="15" x2="243" y2="14.5" gradientUnits="userSpaceOnUse">
<stop stop-color="#141517"/>
<stop offset="1" stop-color="#26282C"/>
</linearGradient>
<linearGradient id="paint2_linear_2568_5955" x1="42" y1="15" x2="243" y2="14.5" gradientUnits="userSpaceOnUse">
<stop stop-color="#141517"/>
<stop offset="1" stop-color="#26282C"/>
</linearGradient>
<linearGradient id="paint3_linear_2568_5955" x1="42" y1="15" x2="243" y2="14.5" gradientUnits="userSpaceOnUse">
<stop stop-color="#141517"/>
<stop offset="1" stop-color="#26282C"/>
</linearGradient>
<linearGradient id="paint4_linear_2568_5955" x1="42" y1="15" x2="243" y2="14.5" gradientUnits="userSpaceOnUse">
<stop stop-color="#141517"/>
<stop offset="1" stop-color="#26282C"/>
</linearGradient>
<linearGradient id="paint5_linear_2568_5955" x1="42" y1="15" x2="243" y2="14.5" gradientUnits="userSpaceOnUse">
<stop stop-color="#141517"/>
<stop offset="1" stop-color="#26282C"/>
</linearGradient>
<linearGradient id="paint6_linear_2568_5955" x1="42" y1="15" x2="243" y2="14.5" gradientUnits="userSpaceOnUse">
<stop stop-color="#141517"/>
<stop offset="1" stop-color="#26282C"/>
</linearGradient>
<linearGradient id="paint7_linear_2568_5955" x1="42" y1="15" x2="243" y2="14.5" gradientUnits="userSpaceOnUse">
<stop stop-color="#141517"/>
<stop offset="1" stop-color="#26282C"/>
</linearGradient>
<linearGradient id="paint8_linear_2568_5955" x1="42" y1="15" x2="243" y2="14.5" gradientUnits="userSpaceOnUse">
<stop stop-color="#141517"/>
<stop offset="1" stop-color="#26282C"/>
</linearGradient>
<linearGradient id="paint9_linear_2568_5955" x1="42" y1="15" x2="243" y2="14.5" gradientUnits="userSpaceOnUse">
<stop stop-color="#141517"/>
<stop offset="1" stop-color="#26282C"/>
</linearGradient>
<linearGradient id="paint10_linear_2568_5955" x1="42" y1="15" x2="243" y2="14.5" gradientUnits="userSpaceOnUse">
<stop stop-color="#141517"/>
<stop offset="1" stop-color="#26282C"/>
</linearGradient>
<linearGradient id="paint11_linear_2568_5955" x1="42" y1="15" x2="243" y2="14.5" gradientUnits="userSpaceOnUse">
<stop stop-color="#141517"/>
<stop offset="1" stop-color="#26282C"/>
</linearGradient>
<linearGradient id="paint12_linear_2568_5955" x1="42" y1="15" x2="243" y2="14.5" gradientUnits="userSpaceOnUse">
<stop stop-color="#141517"/>
<stop offset="1" stop-color="#26282C"/>
</linearGradient>
<linearGradient id="paint13_linear_2568_5955" x1="42" y1="15" x2="243" y2="14.5" gradientUnits="userSpaceOnUse">
<stop stop-color="#141517"/>
<stop offset="1" stop-color="#26282C"/>
</linearGradient>
<linearGradient id="paint14_linear_2568_5955" x1="42" y1="15" x2="243" y2="14.5" gradientUnits="userSpaceOnUse">
<stop stop-color="#141517"/>
<stop offset="1" stop-color="#26282C"/>
</linearGradient>
<clipPath id="clip0_2568_5955">
<rect x="6.90039" y="6.42847" width="17.1429" height="17.1429" rx="6.42857" fill="white"/>
</clipPath>
</defs>
</svg>
