<svg width="194" height="24" viewBox="0 0 194 24" fill="none" xmlns="http://www.w3.org/2000/svg">
<rect width="24" height="24" rx="3.42857" fill="url(#paint0_linear_432_653)"/>
<path d="M17.0189 15.8447L13.7141 10.3349V7.28561H14.1427C14.2564 7.28561 14.3654 7.24046 14.4457 7.16008C14.5261 7.07971 14.5713 6.9707 14.5713 6.85704C14.5713 6.74337 14.5261 6.63437 14.4457 6.55399C14.3654 6.47362 14.2564 6.42847 14.1427 6.42847H9.85698C9.74332 6.42847 9.63431 6.47362 9.55393 6.55399C9.47356 6.63437 9.42841 6.74337 9.42841 6.85704C9.42841 6.9707 9.47356 7.07971 9.55393 7.16008C9.63431 7.24046 9.74332 7.28561 9.85698 7.28561H10.2856V10.3349L6.98073 15.8447C6.90279 15.9747 6.86068 16.123 6.85871 16.2745C6.85675 16.426 6.89498 16.5753 6.96952 16.7073C7.04406 16.8392 7.15224 16.949 7.28305 17.0255C7.41385 17.102 7.56259 17.1425 7.71412 17.1428H16.2856C16.4372 17.1427 16.5862 17.1025 16.7172 17.0261C16.8482 16.9497 16.9566 16.8399 17.0314 16.708C17.1061 16.576 17.1445 16.4265 17.1426 16.2749C17.1407 16.1232 17.0986 15.9748 17.0206 15.8447H17.0189ZM12.1932 13.546C11.3409 13.1147 10.5298 12.886 9.77073 12.8597L11.0816 10.674C11.1217 10.6076 11.1428 10.5314 11.1427 10.4538V7.28561H12.857V10.4538C12.8568 10.5314 12.878 10.6076 12.9181 10.674L14.9656 14.0892C14.3248 14.2145 13.4082 14.161 12.1932 13.546Z" fill="white"/>
<path d="M39.2001 8.39198C37.2161 8.39198 35.6001 10.008 35.6001 11.992C35.6001 13.976 37.2161 15.592 39.2001 15.592H44.8001V17.592H39.2001C36.1121 17.592 33.6001 15.08 33.6001 11.992C33.6001 8.90398 36.1121 6.39198 39.2001 6.39198H44.8001V8.39198H39.2001Z" fill="url(#paint1_linear_432_653)"/>
<path d="M49.4247 8.39198C48.8647 8.39198 48.4007 8.85598 48.4007 9.41598V10.456H55.6007V12.456H48.4007V14.568C48.4007 15.128 48.8647 15.592 49.4247 15.592H57.6007V17.592H49.4247C47.7607 17.592 46.4167 16.232 46.4167 14.568V9.41598C46.4167 7.75198 47.7607 6.39198 49.4247 6.39198H57.6007V8.39198H49.4247Z" fill="url(#paint2_linear_432_653)"/>
<path d="M62.5576 15.592L68.4296 15.608V17.608H62.7496C62.1896 17.608 61.6616 17.48 61.1816 17.24C60.4776 16.888 59.9016 16.312 59.5656 15.608C59.3256 15.128 59.1976 14.6 59.1976 14.04V6.40798H61.1976V14.232C61.2936 14.936 61.8536 15.496 62.5576 15.592Z" fill="url(#paint3_linear_432_653)"/>
<path d="M87.0226 7.27198L87.0386 7.30398C87.5826 7.84798 87.9186 8.59998 87.9186 9.43198C87.9186 10.648 87.1986 11.704 86.1586 12.184C85.8866 12.312 85.5986 12.392 85.2946 12.424C85.2626 12.424 85.2306 12.424 85.1986 12.424V12.44H79.8386V17.592H77.8386V6.39198H84.8946C85.7266 6.39198 86.4786 6.72798 87.0226 7.27198ZM85.3266 10.376V10.36C85.6946 10.2 85.9346 9.83198 85.9346 9.43198C85.9346 9.06398 85.7426 8.80798 85.6306 8.69598C85.5026 8.56798 85.2626 8.40798 84.9106 8.40798H79.8386V10.472H84.9106C85.0546 10.472 85.1986 10.44 85.3266 10.376Z" fill="url(#paint4_linear_432_653)"/>
<path d="M92.8701 15.592L98.7421 15.608V17.608H93.0621C92.5021 17.608 91.9741 17.48 91.4941 17.24C90.7901 16.888 90.2141 16.312 89.8781 15.608C89.6381 15.128 89.5101 14.6 89.5101 14.04V6.40798H91.5101V14.232C91.6061 14.936 92.1661 15.496 92.8701 15.592Z" fill="url(#paint5_linear_432_653)"/>
<path d="M110.114 15.592L111.138 17.592H108.898L107.874 15.592L105.426 10.792L102.978 15.592L101.954 17.592H99.7142L100.738 15.592L105.426 6.39198L110.114 15.592Z" fill="url(#paint6_linear_432_653)"/>
<path d="M117.699 6.37598H120.211L115.875 11.992L115.635 12.296V17.576H113.635V12.328L113.363 11.992L109.027 6.37598H111.555L114.627 10.36L117.699 6.37598ZM109.011 17.624V17.592H109.043L109.011 17.624ZM120.211 17.624L120.195 17.592H120.211V17.624Z" fill="url(#paint7_linear_432_653)"/>
<path d="M125.548 8.39198C123.564 8.39198 121.948 10.008 121.948 11.992C121.948 13.976 123.564 15.592 125.548 15.592H129.148V13.448H125.548V11.448H131.148V17.592H125.548C122.46 17.592 119.948 15.08 119.948 11.992C119.948 8.90398 122.46 6.39198 125.548 6.39198H131.148V8.39198H125.548Z" fill="url(#paint8_linear_432_653)"/>
<path d="M140.184 12.424L141.784 15.608L142.808 17.608H140.568L139.544 15.608L138.472 13.512L138.424 13.416C138.072 12.84 137.448 12.456 136.728 12.456H134.728V17.608H132.728V6.40798H139.8C140.632 6.40798 141.384 6.74398 141.928 7.28798C142.472 7.84798 142.808 8.59998 142.808 9.43198C142.808 10.648 142.088 11.704 141.048 12.184C140.776 12.312 140.488 12.392 140.184 12.424ZM134.728 10.472L139.8 10.456C139.944 10.456 140.088 10.424 140.216 10.36C140.584 10.2 140.824 9.83198 140.824 9.43198C140.824 9.06398 140.632 8.80798 140.52 8.69598C140.392 8.56798 140.152 8.40798 139.8 8.40798H134.728V10.472Z" fill="url(#paint9_linear_432_653)"/>
<path d="M149.632 6.39198C152.72 6.39198 155.232 8.90398 155.232 11.992C155.232 15.08 152.72 17.592 149.632 17.592C146.544 17.592 144.032 15.08 144.032 11.992C144.032 8.90398 146.544 6.39198 149.632 6.39198ZM149.632 15.592C151.616 15.592 153.232 13.976 153.232 11.992C153.232 10.008 151.616 8.39198 149.632 8.39198C147.648 8.39198 146.032 10.008 146.032 11.992C146.032 13.976 147.648 15.592 149.632 15.592Z" fill="url(#paint10_linear_432_653)"/>
<path d="M165.632 6.39198H167.632V11.992C167.632 15.08 165.12 17.592 162.032 17.592C158.944 17.592 156.432 15.08 156.432 11.992V6.39198H158.432V11.992C158.432 13.976 160.048 15.592 162.032 15.592C164.016 15.592 165.632 13.976 165.632 11.992V6.39198Z" fill="url(#paint11_linear_432_653)"/>
<path d="M178.429 6.39198L180.429 6.40798V17.608L178.429 16.072L171.229 10.52V17.608H169.229V6.43998L171.229 7.97598L178.429 13.528V6.39198Z" fill="url(#paint12_linear_432_653)"/>
<path d="M182.026 6.39198L187.61 6.40798C190.698 6.40798 193.21 8.90398 193.21 11.992C193.21 13.368 192.714 14.632 191.882 15.608C191.786 15.72 191.674 15.832 191.562 15.944C190.554 16.968 189.162 17.592 187.626 17.592H182.026V6.39198ZM184.01 8.40798V15.608H187.61C189.594 15.608 191.21 13.992 191.21 12.008C191.21 10.024 189.594 8.40798 187.61 8.40798H184.01Z" fill="url(#paint13_linear_432_653)"/>
<path d="M102.823 13.6H108.423V15.2H102.823V13.6Z" fill="url(#paint14_linear_432_653)"/>
<defs>
<linearGradient id="paint0_linear_432_653" x1="0" y1="12" x2="24" y2="12" gradientUnits="userSpaceOnUse">
<stop stop-color="#A83EFB"/>
<stop offset="1" stop-color="#BC68FC"/>
</linearGradient>
<linearGradient id="paint1_linear_432_653" x1="33.2228" y1="12" x2="194.023" y2="11.6" gradientUnits="userSpaceOnUse">
<stop stop-color="white"/>
<stop offset="1" stop-color="#F2F2F3"/>
</linearGradient>
<linearGradient id="paint2_linear_432_653" x1="33.2228" y1="12" x2="194.023" y2="11.6" gradientUnits="userSpaceOnUse">
<stop stop-color="white"/>
<stop offset="1" stop-color="#F2F2F3"/>
</linearGradient>
<linearGradient id="paint3_linear_432_653" x1="33.2228" y1="12" x2="194.023" y2="11.6" gradientUnits="userSpaceOnUse">
<stop stop-color="white"/>
<stop offset="1" stop-color="#F2F2F3"/>
</linearGradient>
<linearGradient id="paint4_linear_432_653" x1="33.2228" y1="12" x2="194.023" y2="11.6" gradientUnits="userSpaceOnUse">
<stop stop-color="white"/>
<stop offset="1" stop-color="#F2F2F3"/>
</linearGradient>
<linearGradient id="paint5_linear_432_653" x1="33.2228" y1="12" x2="194.023" y2="11.6" gradientUnits="userSpaceOnUse">
<stop stop-color="white"/>
<stop offset="1" stop-color="#F2F2F3"/>
</linearGradient>
<linearGradient id="paint6_linear_432_653" x1="33.2228" y1="12" x2="194.023" y2="11.6" gradientUnits="userSpaceOnUse">
<stop stop-color="white"/>
<stop offset="1" stop-color="#F2F2F3"/>
</linearGradient>
<linearGradient id="paint7_linear_432_653" x1="33.2228" y1="12" x2="194.023" y2="11.6" gradientUnits="userSpaceOnUse">
<stop stop-color="white"/>
<stop offset="1" stop-color="#F2F2F3"/>
</linearGradient>
<linearGradient id="paint8_linear_432_653" x1="33.2228" y1="12" x2="194.023" y2="11.6" gradientUnits="userSpaceOnUse">
<stop stop-color="white"/>
<stop offset="1" stop-color="#F2F2F3"/>
</linearGradient>
<linearGradient id="paint9_linear_432_653" x1="33.2228" y1="12" x2="194.023" y2="11.6" gradientUnits="userSpaceOnUse">
<stop stop-color="white"/>
<stop offset="1" stop-color="#F2F2F3"/>
</linearGradient>
<linearGradient id="paint10_linear_432_653" x1="33.2228" y1="12" x2="194.023" y2="11.6" gradientUnits="userSpaceOnUse">
<stop stop-color="white"/>
<stop offset="1" stop-color="#F2F2F3"/>
</linearGradient>
<linearGradient id="paint11_linear_432_653" x1="33.2228" y1="12" x2="194.023" y2="11.6" gradientUnits="userSpaceOnUse">
<stop stop-color="white"/>
<stop offset="1" stop-color="#F2F2F3"/>
</linearGradient>
<linearGradient id="paint12_linear_432_653" x1="33.2228" y1="12" x2="194.023" y2="11.6" gradientUnits="userSpaceOnUse">
<stop stop-color="white"/>
<stop offset="1" stop-color="#F2F2F3"/>
</linearGradient>
<linearGradient id="paint13_linear_432_653" x1="33.2228" y1="12" x2="194.023" y2="11.6" gradientUnits="userSpaceOnUse">
<stop stop-color="white"/>
<stop offset="1" stop-color="#F2F2F3"/>
</linearGradient>
<linearGradient id="paint14_linear_432_653" x1="33.2228" y1="12" x2="194.023" y2="11.6" gradientUnits="userSpaceOnUse">
<stop stop-color="white"/>
<stop offset="1" stop-color="#F2F2F3"/>
</linearGradient>
</defs>
</svg>
