<svg width="40" height="40" viewBox="0 0 40 40" fill="none" xmlns="http://www.w3.org/2000/svg">
<g clip-path="url(#clip0_415_508)">
<path d="M26.7213 21.3881C26.3175 22.7062 25.5083 23.8634 24.4088 24.695C23.4434 25.4215 22.2947 25.8646 21.0916 25.9746C19.8884 26.0845 18.6784 25.8569 17.5973 25.3174C16.5163 24.7779 15.607 23.9477 14.9716 22.9201C14.3362 21.8925 13.9997 20.7081 14 19.5C13.9957 18.0897 14.4541 16.717 15.305 15.5925C16.1366 14.4929 17.2938 13.6837 18.6119 13.28C18.6988 13.2532 18.7913 13.2506 18.8795 13.2725C18.9677 13.2944 19.0483 13.34 19.1126 13.4043C19.1769 13.4685 19.2224 13.5491 19.2443 13.6373C19.2662 13.7256 19.2637 13.8181 19.2369 13.905C18.9487 14.8583 18.9245 15.8721 19.167 16.8381C19.4094 17.8042 19.9095 18.6863 20.6137 19.3906C21.318 20.0949 22.2002 20.5949 23.1662 20.8374C24.1323 21.0798 25.146 21.0557 26.0994 20.7675C26.1863 20.7407 26.2788 20.7381 26.367 20.76C26.4552 20.7819 26.5358 20.8275 26.6001 20.8918C26.6644 20.956 26.7099 21.0366 26.7318 21.1248C26.7537 21.2131 26.7512 21.3056 26.7244 21.3925L26.7213 21.3881Z" fill="white" fill-opacity="0.8"/>
</g>
<rect x="0.5" y="0.5" width="39" height="39" rx="19.5" stroke="white" stroke-opacity="0.16"/>
<defs>
<clipPath id="clip0_415_508">
<rect width="16" height="16" fill="white" transform="translate(12 12)"/>
</clipPath>
</defs>
</svg>
