<svg width="40" height="40" viewBox="0 0 40 40" fill="none" xmlns="http://www.w3.org/2000/svg">
<g clip-path="url(#clip0_415_506)">
<path d="M19.5 14.5V13C19.5 12.8674 19.5527 12.7402 19.6464 12.6464C19.7402 12.5527 19.8674 12.5 20 12.5C20.1326 12.5 20.2598 12.5527 20.3536 12.6464C20.4473 12.7402 20.5 12.8674 20.5 13V14.5C20.5 14.6326 20.4473 14.7598 20.3536 14.8536C20.2598 14.9473 20.1326 15 20 15C19.8674 15 19.7402 14.9473 19.6464 14.8536C19.5527 14.7598 19.5 14.6326 19.5 14.5ZM20 16C19.2089 16 18.4355 16.2346 17.7777 16.6741C17.1199 17.1136 16.6072 17.7384 16.3045 18.4693C16.0017 19.2002 15.9225 20.0044 16.0769 20.7804C16.2312 21.5563 16.6122 22.269 17.1716 22.8284C17.731 23.3878 18.4437 23.7688 19.2196 23.9231C19.9956 24.0775 20.7998 23.9983 21.5307 23.6955C22.2616 23.3928 22.8864 22.8801 23.3259 22.2223C23.7654 21.5645 24 20.7911 24 20C23.9988 18.9395 23.577 17.9227 22.8271 17.1729C22.0773 16.423 21.0605 16.0012 20 16ZM15.6463 16.3538C15.7401 16.4476 15.8673 16.5003 16 16.5003C16.1327 16.5003 16.2599 16.4476 16.3538 16.3538C16.4476 16.2599 16.5003 16.1327 16.5003 16C16.5003 15.8673 16.4476 15.7401 16.3538 15.6463L15.3537 14.6463C15.2599 14.5524 15.1327 14.4997 15 14.4997C14.8673 14.4997 14.7401 14.5524 14.6463 14.6463C14.5524 14.7401 14.4997 14.8673 14.4997 15C14.4997 15.1327 14.5524 15.2599 14.6463 15.3537L15.6463 16.3538ZM15.6463 23.6462L14.6463 24.6462C14.5524 24.7401 14.4997 24.8673 14.4997 25C14.4997 25.1327 14.5524 25.2599 14.6463 25.3538C14.7401 25.4476 14.8673 25.5003 15 25.5003C15.1327 25.5003 15.2599 25.4476 15.3537 25.3538L16.3538 24.3538C16.4002 24.3073 16.4371 24.2521 16.4622 24.1914C16.4873 24.1308 16.5003 24.0657 16.5003 24C16.5003 23.9343 16.4873 23.8692 16.4622 23.8086C16.4371 23.7479 16.4002 23.6927 16.3538 23.6462C16.3073 23.5998 16.2521 23.5629 16.1914 23.5378C16.1308 23.5127 16.0657 23.4997 16 23.4997C15.9343 23.4997 15.8692 23.5127 15.8086 23.5378C15.7479 23.5629 15.6927 23.5998 15.6463 23.6462ZM24 16.5C24.0657 16.5001 24.1307 16.4872 24.1914 16.4621C24.2521 16.437 24.3073 16.4002 24.3538 16.3538L25.3538 15.3537C25.4476 15.2599 25.5003 15.1327 25.5003 15C25.5003 14.8673 25.4476 14.7401 25.3538 14.6463C25.2599 14.5524 25.1327 14.4997 25 14.4997C24.8673 14.4997 24.7401 14.5524 24.6462 14.6463L23.6462 15.6463C23.5762 15.7162 23.5286 15.8053 23.5092 15.9023C23.4899 15.9994 23.4998 16.1 23.5377 16.1914C23.5756 16.2828 23.6397 16.3609 23.722 16.4159C23.8043 16.4708 23.9011 16.5001 24 16.5ZM24.3538 23.6462C24.2599 23.5524 24.1327 23.4997 24 23.4997C23.8673 23.4997 23.7401 23.5524 23.6462 23.6462C23.5524 23.7401 23.4997 23.8673 23.4997 24C23.4997 24.1327 23.5524 24.2599 23.6462 24.3538L24.6462 25.3538C24.6927 25.4002 24.7479 25.4371 24.8086 25.4622C24.8692 25.4873 24.9343 25.5003 25 25.5003C25.0657 25.5003 25.1308 25.4873 25.1914 25.4622C25.2521 25.4371 25.3073 25.4002 25.3538 25.3538C25.4002 25.3073 25.4371 25.2521 25.4622 25.1914C25.4873 25.1308 25.5003 25.0657 25.5003 25C25.5003 24.9343 25.4873 24.8692 25.4622 24.8086C25.4371 24.7479 25.4002 24.6927 25.3538 24.6462L24.3538 23.6462ZM15 20C15 19.8674 14.9473 19.7402 14.8536 19.6464C14.7598 19.5527 14.6326 19.5 14.5 19.5H13C12.8674 19.5 12.7402 19.5527 12.6464 19.6464C12.5527 19.7402 12.5 19.8674 12.5 20C12.5 20.1326 12.5527 20.2598 12.6464 20.3536C12.7402 20.4473 12.8674 20.5 13 20.5H14.5C14.6326 20.5 14.7598 20.4473 14.8536 20.3536C14.9473 20.2598 15 20.1326 15 20ZM20 25C19.8674 25 19.7402 25.0527 19.6464 25.1464C19.5527 25.2402 19.5 25.3674 19.5 25.5V27C19.5 27.1326 19.5527 27.2598 19.6464 27.3536C19.7402 27.4473 19.8674 27.5 20 27.5C20.1326 27.5 20.2598 27.4473 20.3536 27.3536C20.4473 27.2598 20.5 27.1326 20.5 27V25.5C20.5 25.3674 20.4473 25.2402 20.3536 25.1464C20.2598 25.0527 20.1326 25 20 25ZM27 19.5H25.5C25.3674 19.5 25.2402 19.5527 25.1464 19.6464C25.0527 19.7402 25 19.8674 25 20C25 20.1326 25.0527 20.2598 25.1464 20.3536C25.2402 20.4473 25.3674 20.5 25.5 20.5H27C27.1326 20.5 27.2598 20.4473 27.3536 20.3536C27.4473 20.2598 27.5 20.1326 27.5 20C27.5 19.8674 27.4473 19.7402 27.3536 19.6464C27.2598 19.5527 27.1326 19.5 27 19.5Z" fill="black" fill-opacity="0.5"/>
</g>
<rect x="0.5" y="0.5" width="39" height="39" rx="19.5" stroke="#E3E3E3"/>
<defs>
<clipPath id="clip0_415_506">
<rect width="16" height="16" fill="white" transform="translate(12 12)"/>
</clipPath>
</defs>
</svg>
